<?xml version="1.0" standalone="no"?><!DOCTYPE svg PUBLIC "-//W3C//DTD SVG 1.1//EN" "http://www.w3.org/Graphics/SVG/1.1/DTD/svg11.dtd"><svg t="1558687070161" class="icon" style="" viewBox="0 0 1024 1024" version="1.1" xmlns="http://www.w3.org/2000/svg" p-id="802" xmlns:xlink="http://www.w3.org/1999/xlink" width="200" height="200"><defs><style type="text/css"></style></defs><path d="M900.096 440.25856l-33.57696-33.57696a97.28 97.28 0 0 1-28.672-68.608v-48.68096a97.28 97.28 0 0 0-97.28-97.3312h-48.7936a97.28 97.28 0 0 1-68.608-28.672l-32.60416-32.60416a97.3312 97.3312 0 0 0-137.728 0l-33.57696 33.57696a97.28 97.28 0 0 1-68.608 28.672h-48.6912a97.28 97.28 0 0 0-97.3312 97.3312v48.66048a97.28 97.28 0 0 1-28.672 68.608L142.336 441.23136a97.3312 97.3312 0 0 0 0 137.728l33.57696 33.57696a97.3312 97.3312 0 0 1 28.672 68.608v48.66048a97.28 97.28 0 0 0 97.3312 97.3312h48.66048a97.28 97.28 0 0 1 68.608 28.672l33.57696 33.57696a97.3312 97.3312 0 0 0 137.728 0l33.6384-33.52576a97.3312 97.3312 0 0 1 68.608-28.672H741.376a97.28 97.28 0 0 0 97.3312-97.3312v-48.71168a97.34144 97.34144 0 0 1 28.672-68.608l33.57696-33.57696a97.28 97.28 0 0 0-0.86016-138.7008z m-34.59072 103.168l-33.57696 33.57696a145.99168 145.99168 0 0 0-42.82368 103.168v48.66048a48.66048 48.66048 0 0 1-48.66048 48.67072h-48.67072a145.99168 145.99168 0 0 0-103.168 42.82368L555.008 853.9136a48.67072 48.67072 0 0 1-68.608 0l-31.15008-34.54976a146.00192 146.00192 0 0 0-103.168-42.82368h-48.66048a48.66048 48.66048 0 0 1-48.67072-48.66048v-48.68096a145.99168 145.99168 0 0 0-42.78272-102.1952l-33.57696-33.57696a48.66048 48.66048 0 0 1 0-68.608L211.968 442.68544a146.01216 146.01216 0 0 0 42.82368-103.168V290.816a48.66048 48.66048 0 0 1 48.67072-48.66048h48.66048a146.01216 146.01216 0 0 0 103.168-42.82368l33.57696-33.57696a48.66048 48.66048 0 0 1 68.608 0l32.12288 33.57696a146.00192 146.00192 0 0 0 103.168 42.82368H741.376A48.66048 48.66048 0 0 1 790.07744 290.816v48.66048a146.01216 146.01216 0 0 0 41.85088 103.168l33.57696 33.57696a48.67072 48.67072 0 0 1 0 68.608z m0 0" fill="#d81e06" p-id="803"></path><path d="M521.44128 338.54464a170.33216 170.33216 0 1 0 170.33216 170.33216 170.33216 170.33216 0 0 0-170.33216-170.33216z m0 291.9936A121.66144 121.66144 0 1 1 643.072 508.8768a121.66144 121.66144 0 0 1-121.63072 121.66144z m0 0" fill="#d81e06" p-id="804"></path></svg>